<?xml version="1.0" encoding="UTF-8" standalone="no"?>
<!DOCTYPE svg PUBLIC "-//W3C//DTD SVG 1.1//EN"
 "http://www.w3.org/Graphics/SVG/1.1/DTD/svg11.dtd">
<!-- Generated by graphviz version 2.38.0 (20140413.2041)
 -->
<!-- Title: %3 Pages: 1 -->
<svg width="278pt" height="155pt"
 viewBox="0.00 0.00 278.00 155.17" xmlns="http://www.w3.org/2000/svg" xmlns:xlink="http://www.w3.org/1999/xlink">
<g id="graph0" class="graph" transform="scale(1 1) rotate(0) translate(4 151.167)">
<title>%3</title>
<polygon fill="white" stroke="none" points="-4,4 -4,-151.167 274,-151.167 274,4 -4,4"/>
<!-- 0 -->
<g id="node1" class="node"><title>0</title>
<ellipse fill="BLACK" stroke="BLACK" cx="99" cy="-123.125" rx="27" ry="24.0833"/>
<text text-anchor="start" x="95.5" y="-125.925" font-family="Times New Roman,serif" font-size="14.00" fill="white">0</text>
<text text-anchor="start" x="89.5" y="-113.525" font-family="Times New Roman,serif" font-size="12.00" fill="white">d=0</text>
</g>
<!-- 1 -->
<g id="node2" class="node"><title>1</title>
<ellipse fill="BLACK" stroke="BLACK" cx="27" cy="-24.0416" rx="27" ry="24.0833"/>
<text text-anchor="start" x="23.5" y="-26.8416" font-family="Times New Roman,serif" font-size="14.00" fill="white">1</text>
<text text-anchor="start" x="17.5" y="-14.4416" font-family="Times New Roman,serif" font-size="12.00" fill="white">d=9</text>
</g>
<!-- 0&#45;&#45;1 -->
<g id="edge1" class="edge"><title>0&#45;&#45;1</title>
<path fill="none" stroke="black" d="M84.4297,-102.479C71.938,-85.6351 54.034,-61.4937 41.5486,-44.6587"/>
<text text-anchor="middle" x="71.5" y="-69.8833" font-family="Times New Roman,serif" font-size="14.00">9</text>
</g>
<!-- 2 -->
<g id="node3" class="node"><title>2</title>
<ellipse fill="BLACK" stroke="BLACK" cx="99" cy="-24.0416" rx="27" ry="24.0833"/>
<text text-anchor="start" x="95.5" y="-26.8416" font-family="Times New Roman,serif" font-size="14.00" fill="white">2</text>
<text text-anchor="start" x="89.5" y="-14.4416" font-family="Times New Roman,serif" font-size="12.00" fill="white">d=8</text>
</g>
<!-- 0&#45;&#45;2 -->
<g id="edge2" class="edge"><title>0&#45;&#45;2</title>
<path fill="none" stroke="black" d="M99,-98.6237C99,-83.3598 99,-63.547 99,-48.3264"/>
<text text-anchor="middle" x="102.5" y="-69.8833" font-family="Times New Roman,serif" font-size="14.00">8</text>
</g>
<!-- 3 -->
<g id="node4" class="node"><title>3</title>
<ellipse fill="BLACK" stroke="BLACK" cx="171" cy="-24.0416" rx="27" ry="24.0833"/>
<text text-anchor="start" x="167.5" y="-26.8416" font-family="Times New Roman,serif" font-size="14.00" fill="white">3</text>
<text text-anchor="start" x="161.5" y="-14.4416" font-family="Times New Roman,serif" font-size="12.00" fill="white">d=6</text>
</g>
<!-- 0&#45;&#45;3 -->
<g id="edge3" class="edge"><title>0&#45;&#45;3</title>
<path fill="none" stroke="black" d="M113.57,-102.479C126.062,-85.6351 143.966,-61.4937 156.451,-44.6587"/>
<text text-anchor="middle" x="143.5" y="-69.8833" font-family="Times New Roman,serif" font-size="14.00">6</text>
</g>
<!-- 4 -->
<g id="node5" class="node"><title>4</title>
<ellipse fill="BLACK" stroke="BLACK" cx="243" cy="-24.0416" rx="27" ry="24.0833"/>
<text text-anchor="start" x="239.5" y="-26.8416" font-family="Times New Roman,serif" font-size="14.00" fill="white">4</text>
<text text-anchor="start" x="233.5" y="-14.4416" font-family="Times New Roman,serif" font-size="12.00" fill="white">d=4</text>
</g>
<!-- 0&#45;&#45;4 -->
<g id="edge4" class="edge"><title>0&#45;&#45;4</title>
<path fill="none" stroke="black" d="M120.248,-107.8C147.473,-89.4447 194.398,-57.8089 221.665,-39.4254"/>
<text text-anchor="middle" x="182.5" y="-69.8833" font-family="Times New Roman,serif" font-size="14.00">4</text>
</g>
</g>
</svg>
