<?xml version="1.0" encoding="UTF-8" standalone="no"?>
<!DOCTYPE svg PUBLIC "-//W3C//DTD SVG 1.1//EN"
 "http://www.w3.org/Graphics/SVG/1.1/DTD/svg11.dtd">
<!-- Generated by graphviz version 2.38.0 (20140413.2041)
 -->
<!-- Title: %3 Pages: 1 -->
<svg width="248pt" height="440pt"
 viewBox="0.00 0.00 248.00 440.33" xmlns="http://www.w3.org/2000/svg" xmlns:xlink="http://www.w3.org/1999/xlink">
<g id="graph0" class="graph" transform="scale(1 1) rotate(0) translate(4 436.333)">
<title>%3</title>
<polygon fill="white" stroke="none" points="-4,4 -4,-436.333 244,-436.333 244,4 -4,4"/>
<!-- 0 -->
<g id="node1" class="node"><title>0</title>
<ellipse fill="BLACK" stroke="BLACK" cx="101" cy="-408.291" rx="27" ry="24.0833"/>
<text text-anchor="start" x="97.5" y="-411.091" font-family="Times New Roman,serif" font-size="14.00" fill="white">0</text>
<text text-anchor="start" x="91.5" y="-398.691" font-family="Times New Roman,serif" font-size="12.00" fill="white">d=0</text>
</g>
<!-- 0&#45;&#45;0 -->
<g id="edge1" class="edge"><title>0&#45;&#45;0</title>
<path fill="none" stroke="black" d="M126.443,-417.212C137.028,-417.828 146,-414.854 146,-408.291 146,-401.729 137.028,-398.755 126.443,-399.371"/>
<text text-anchor="middle" x="149.5" y="-404.591" font-family="Times New Roman,serif" font-size="14.00">5</text>
</g>
<!-- 1 -->
<g id="node2" class="node"><title>1</title>
<ellipse fill="BLACK" stroke="BLACK" cx="101" cy="-309.208" rx="27" ry="24.0833"/>
<text text-anchor="start" x="97.5" y="-312.008" font-family="Times New Roman,serif" font-size="14.00" fill="white">1</text>
<text text-anchor="start" x="91.5" y="-299.608" font-family="Times New Roman,serif" font-size="12.00" fill="white">d=9</text>
</g>
<!-- 0&#45;&#45;1 -->
<g id="edge2" class="edge"><title>0&#45;&#45;1</title>
<path fill="none" stroke="black" d="M101,-383.79C101,-368.526 101,-348.714 101,-333.493"/>
<text text-anchor="middle" x="104.5" y="-355.05" font-family="Times New Roman,serif" font-size="14.00">9</text>
</g>
<!-- 2 -->
<g id="node3" class="node"><title>2</title>
<ellipse fill="BLACK" stroke="BLACK" cx="93" cy="-210.125" rx="27" ry="24.0833"/>
<text text-anchor="start" x="89.5" y="-212.925" font-family="Times New Roman,serif" font-size="14.00" fill="white">2</text>
<text text-anchor="start" x="83.5" y="-200.525" font-family="Times New Roman,serif" font-size="12.00" fill="white">d=8</text>
</g>
<!-- 0&#45;&#45;2 -->
<g id="edge3" class="edge"><title>0&#45;&#45;2</title>
<path fill="none" stroke="black" d="M86.0638,-388.143C75.9415,-373.894 63.4505,-353.488 58,-333.25 52.4426,-312.615 53.3199,-306.018 58,-285.167 62.297,-266.022 72.1319,-246.002 80.2855,-231.613"/>
<text text-anchor="middle" x="61.5" y="-305.508" font-family="Times New Roman,serif" font-size="14.00">8</text>
</g>
<!-- 3 -->
<g id="node4" class="node"><title>3</title>
<ellipse fill="BLACK" stroke="BLACK" cx="188" cy="-111.042" rx="27" ry="24.0833"/>
<text text-anchor="start" x="184.5" y="-113.842" font-family="Times New Roman,serif" font-size="14.00" fill="white">3</text>
<text text-anchor="start" x="178.5" y="-101.442" font-family="Times New Roman,serif" font-size="12.00" fill="white">d=6</text>
</g>
<!-- 0&#45;&#45;3 -->
<g id="edge4" class="edge"><title>0&#45;&#45;3</title>
<path fill="none" stroke="black" d="M118.975,-390.019C132.642,-375.936 150.925,-354.898 162,-333.25 196.134,-266.528 191.488,-242.894 196,-168.083 196.401,-161.429 196.641,-159.719 196,-153.083 195.428,-147.158 194.402,-140.818 193.271,-134.936"/>
<text text-anchor="middle" x="193.5" y="-255.967" font-family="Times New Roman,serif" font-size="14.00">6</text>
</g>
<!-- 4 -->
<g id="node5" class="node"><title>4</title>
<ellipse fill="grey" stroke="grey" cx="93" cy="-18" rx="27" ry="18"/>
<text text-anchor="middle" x="93" y="-14.3" font-family="Times New Roman,serif" font-size="14.00">4</text>
</g>
<!-- 0&#45;&#45;4 -->
<g id="edge5" class="edge"><title>0&#45;&#45;4</title>
<path fill="none" stroke="black" d="M77.0644,-397.067C47.1973,-382.51 0,-352.771 0,-310.208 0,-310.208 0,-310.208 0,-110.042 0,-70.5012 43.4589,-42.4762 70.9603,-28.7001"/>
<text text-anchor="middle" x="3.5" y="-206.425" font-family="Times New Roman,serif" font-size="14.00">4</text>
</g>
<!-- 1&#45;&#45;1 -->
<g id="edge6" class="edge"><title>1&#45;&#45;1</title>
<path fill="none" stroke="black" d="M126.443,-318.129C137.028,-318.744 146,-315.771 146,-309.208 146,-302.646 137.028,-299.672 126.443,-300.287"/>
<text text-anchor="middle" x="149.5" y="-305.508" font-family="Times New Roman,serif" font-size="14.00">2</text>
</g>
<!-- 1&#45;&#45;2 -->
<g id="edge7" class="edge"><title>1&#45;&#45;2</title>
<path fill="none" stroke="black" d="M99.1041,-285.201C97.8381,-269.837 96.1789,-249.703 94.91,-234.304"/>
<text text-anchor="middle" x="100.5" y="-255.967" font-family="Times New Roman,serif" font-size="14.00">4</text>
</g>
<!-- 1&#45;&#45;3 -->
<g id="edge8" class="edge"><title>1&#45;&#45;3</title>
<path fill="none" stroke="black" d="M118.902,-290.997C132.468,-276.948 150.508,-255.925 161,-234.167 176.562,-201.894 183.28,-160.49 186.09,-135.132"/>
<text text-anchor="middle" x="180.5" y="-206.425" font-family="Times New Roman,serif" font-size="14.00">6</text>
</g>
<!-- 1&#45;&#45;4 -->
<g id="edge9" class="edge"><title>1&#45;&#45;4</title>
<path fill="none" stroke="black" d="M85.7211,-289.116C75.3655,-274.893 62.5849,-254.497 57,-234.167 37.0348,-161.489 69.8627,-71.7849 85.4712,-35.4418"/>
<text text-anchor="middle" x="55.5" y="-156.883" font-family="Times New Roman,serif" font-size="14.00">4</text>
</g>
<!-- 2&#45;&#45;2 -->
<g id="edge10" class="edge"><title>2&#45;&#45;2</title>
<path fill="none" stroke="black" d="M118.443,-219.046C129.028,-219.661 138,-216.687 138,-210.125 138,-203.562 129.028,-200.589 118.443,-201.204"/>
<text text-anchor="middle" x="145" y="-206.425" font-family="Times New Roman,serif" font-size="14.00">10</text>
</g>
<!-- 2&#45;&#45;3 -->
<g id="edge11" class="edge"><title>2&#45;&#45;3</title>
<path fill="none" stroke="black" d="M110.424,-191.318C127.566,-173.801 153.583,-147.213 170.686,-129.735"/>
<text text-anchor="middle" x="149.5" y="-156.883" font-family="Times New Roman,serif" font-size="14.00">3</text>
</g>
<!-- 2&#45;&#45;4 -->
<g id="edge12" class="edge"><title>2&#45;&#45;4</title>
<path fill="none" stroke="black" d="M93,-185.812C93,-147.041 93,-70.2028 93,-36.0501"/>
<text text-anchor="middle" x="96.5" y="-107.342" font-family="Times New Roman,serif" font-size="14.00">5</text>
</g>
<!-- 3&#45;&#45;3 -->
<g id="edge13" class="edge"><title>3&#45;&#45;3</title>
<path fill="none" stroke="black" d="M213.443,-119.963C224.028,-120.578 233,-117.604 233,-111.042 233,-104.479 224.028,-101.505 213.443,-102.121"/>
<text text-anchor="middle" x="236.5" y="-107.342" font-family="Times New Roman,serif" font-size="14.00">8</text>
</g>
<!-- 3&#45;&#45;4 -->
<g id="edge14" class="edge"><title>3&#45;&#45;4</title>
<path fill="none" stroke="black" d="M170.131,-92.9174C152.179,-75.7134 124.826,-49.4995 107.976,-33.3521"/>
<text text-anchor="middle" x="146.5" y="-57.8" font-family="Times New Roman,serif" font-size="14.00">4</text>
</g>
<!-- 4&#45;&#45;4 -->
<g id="edge15" class="edge"><title>4&#45;&#45;4</title>
<path fill="none" stroke="black" d="M117.532,-25.752C128.508,-26.4902 138,-23.9063 138,-18 138,-12.0938 128.508,-9.50977 117.532,-10.248"/>
<text text-anchor="middle" x="141.5" y="-14.3" font-family="Times New Roman,serif" font-size="14.00">1</text>
</g>
</g>
</svg>
