<?xml version="1.0" encoding="UTF-8" standalone="no"?>
<!DOCTYPE svg PUBLIC "-//W3C//DTD SVG 1.1//EN"
 "http://www.w3.org/Graphics/SVG/1.1/DTD/svg11.dtd">
<!-- Generated by graphviz version 2.38.0 (20140413.2041)
 -->
<!-- Title: %3 Pages: 1 -->
<svg width="248pt" height="452pt"
 viewBox="0.00 0.00 248.00 452.42" xmlns="http://www.w3.org/2000/svg" xmlns:xlink="http://www.w3.org/1999/xlink">
<g id="graph0" class="graph" transform="scale(1 1) rotate(0) translate(4 448.416)">
<title>%3</title>
<polygon fill="white" stroke="none" points="-4,4 -4,-448.416 244,-448.416 244,4 -4,4"/>
<!-- 0 -->
<g id="node1" class="node"><title>0</title>
<ellipse fill="BLACK" stroke="BLACK" cx="101" cy="-420.375" rx="27" ry="24.0833"/>
<text text-anchor="start" x="97.5" y="-423.175" font-family="Times New Roman,serif" font-size="14.00" fill="white">0</text>
<text text-anchor="start" x="91.5" y="-410.775" font-family="Times New Roman,serif" font-size="12.00" fill="white">d=0</text>
</g>
<!-- 0&#45;&#45;0 -->
<g id="edge1" class="edge"><title>0&#45;&#45;0</title>
<path fill="none" stroke="black" d="M126.443,-429.296C137.028,-429.911 146,-426.937 146,-420.375 146,-413.812 137.028,-410.839 126.443,-411.454"/>
<text text-anchor="middle" x="149.5" y="-416.675" font-family="Times New Roman,serif" font-size="14.00">5</text>
</g>
<!-- 1 -->
<g id="node2" class="node"><title>1</title>
<ellipse fill="BLACK" stroke="BLACK" cx="101" cy="-321.291" rx="27" ry="24.0833"/>
<text text-anchor="start" x="97.5" y="-324.091" font-family="Times New Roman,serif" font-size="14.00" fill="white">1</text>
<text text-anchor="start" x="91.5" y="-311.691" font-family="Times New Roman,serif" font-size="12.00" fill="white">d=9</text>
</g>
<!-- 0&#45;&#45;1 -->
<g id="edge2" class="edge"><title>0&#45;&#45;1</title>
<path fill="none" stroke="black" d="M101,-395.874C101,-380.61 101,-360.797 101,-345.576"/>
<text text-anchor="middle" x="104.5" y="-367.133" font-family="Times New Roman,serif" font-size="14.00">9</text>
</g>
<!-- 2 -->
<g id="node3" class="node"><title>2</title>
<ellipse fill="BLACK" stroke="BLACK" cx="93" cy="-222.208" rx="27" ry="24.0833"/>
<text text-anchor="start" x="89.5" y="-225.008" font-family="Times New Roman,serif" font-size="14.00" fill="white">2</text>
<text text-anchor="start" x="83.5" y="-212.608" font-family="Times New Roman,serif" font-size="12.00" fill="white">d=8</text>
</g>
<!-- 0&#45;&#45;2 -->
<g id="edge3" class="edge"><title>0&#45;&#45;2</title>
<path fill="none" stroke="black" d="M86.0638,-400.227C75.9415,-385.977 63.4505,-365.572 58,-345.333 52.4426,-324.698 53.3199,-318.101 58,-297.25 62.297,-278.105 72.1319,-258.085 80.2855,-243.697"/>
<text text-anchor="middle" x="61.5" y="-317.591" font-family="Times New Roman,serif" font-size="14.00">8</text>
</g>
<!-- 3 -->
<g id="node4" class="node"><title>3</title>
<ellipse fill="BLACK" stroke="BLACK" cx="188" cy="-123.125" rx="27" ry="24.0833"/>
<text text-anchor="start" x="184.5" y="-125.925" font-family="Times New Roman,serif" font-size="14.00" fill="white">3</text>
<text text-anchor="start" x="178.5" y="-113.525" font-family="Times New Roman,serif" font-size="12.00" fill="white">d=6</text>
</g>
<!-- 0&#45;&#45;3 -->
<g id="edge4" class="edge"><title>0&#45;&#45;3</title>
<path fill="none" stroke="black" d="M118.975,-402.102C132.642,-388.019 150.925,-366.981 162,-345.333 196.134,-278.611 191.488,-254.977 196,-180.167 196.401,-173.512 196.641,-171.802 196,-165.167 195.428,-159.241 194.402,-152.901 193.271,-147.02"/>
<text text-anchor="middle" x="193.5" y="-268.05" font-family="Times New Roman,serif" font-size="14.00">6</text>
</g>
<!-- 4 -->
<g id="node5" class="node"><title>4</title>
<ellipse fill="BLACK" stroke="BLACK" cx="93" cy="-24.0416" rx="27" ry="24.0833"/>
<text text-anchor="start" x="89.5" y="-26.8416" font-family="Times New Roman,serif" font-size="14.00" fill="white">4</text>
<text text-anchor="start" x="83.5" y="-14.4416" font-family="Times New Roman,serif" font-size="12.00" fill="white">d=4</text>
</g>
<!-- 0&#45;&#45;4 -->
<g id="edge5" class="edge"><title>0&#45;&#45;4</title>
<path fill="none" stroke="black" d="M77.0644,-409.151C47.1973,-394.593 0,-364.855 0,-322.291 0,-322.291 0,-322.291 0,-122.125 0,-81.9796 41.9817,-51.9546 69.5322,-36.573"/>
<text text-anchor="middle" x="3.5" y="-218.508" font-family="Times New Roman,serif" font-size="14.00">4</text>
</g>
<!-- 1&#45;&#45;1 -->
<g id="edge6" class="edge"><title>1&#45;&#45;1</title>
<path fill="none" stroke="black" d="M126.443,-330.212C137.028,-330.828 146,-327.854 146,-321.291 146,-314.729 137.028,-311.755 126.443,-312.371"/>
<text text-anchor="middle" x="149.5" y="-317.591" font-family="Times New Roman,serif" font-size="14.00">2</text>
</g>
<!-- 1&#45;&#45;2 -->
<g id="edge7" class="edge"><title>1&#45;&#45;2</title>
<path fill="none" stroke="black" d="M99.1041,-297.284C97.8381,-281.92 96.1789,-261.786 94.91,-246.387"/>
<text text-anchor="middle" x="100.5" y="-268.05" font-family="Times New Roman,serif" font-size="14.00">4</text>
</g>
<!-- 1&#45;&#45;3 -->
<g id="edge8" class="edge"><title>1&#45;&#45;3</title>
<path fill="none" stroke="black" d="M118.902,-303.08C132.468,-289.031 150.508,-268.008 161,-246.25 176.562,-213.977 183.28,-172.573 186.09,-147.215"/>
<text text-anchor="middle" x="180.5" y="-218.508" font-family="Times New Roman,serif" font-size="14.00">6</text>
</g>
<!-- 1&#45;&#45;4 -->
<g id="edge9" class="edge"><title>1&#45;&#45;4</title>
<path fill="none" stroke="black" d="M85.7211,-301.199C75.3655,-286.977 62.5849,-266.58 57,-246.25 37.3138,-174.588 67.0427,-86.722 83.4086,-46.7227"/>
<text text-anchor="middle" x="55.5" y="-168.967" font-family="Times New Roman,serif" font-size="14.00">4</text>
</g>
<!-- 2&#45;&#45;2 -->
<g id="edge10" class="edge"><title>2&#45;&#45;2</title>
<path fill="none" stroke="black" d="M118.443,-231.129C129.028,-231.744 138,-228.771 138,-222.208 138,-215.646 129.028,-212.672 118.443,-213.287"/>
<text text-anchor="middle" x="145" y="-218.508" font-family="Times New Roman,serif" font-size="14.00">10</text>
</g>
<!-- 2&#45;&#45;3 -->
<g id="edge11" class="edge"><title>2&#45;&#45;3</title>
<path fill="none" stroke="black" d="M110.424,-203.402C127.566,-185.885 153.583,-159.296 170.686,-141.819"/>
<text text-anchor="middle" x="149.5" y="-168.967" font-family="Times New Roman,serif" font-size="14.00">3</text>
</g>
<!-- 2&#45;&#45;4 -->
<g id="edge12" class="edge"><title>2&#45;&#45;4</title>
<path fill="none" stroke="black" d="M93,-197.935C93,-160.181 93,-86.0191 93,-48.2846"/>
<text text-anchor="middle" x="96.5" y="-119.425" font-family="Times New Roman,serif" font-size="14.00">5</text>
</g>
<!-- 3&#45;&#45;3 -->
<g id="edge13" class="edge"><title>3&#45;&#45;3</title>
<path fill="none" stroke="black" d="M213.443,-132.046C224.028,-132.661 233,-129.687 233,-123.125 233,-116.562 224.028,-113.589 213.443,-114.204"/>
<text text-anchor="middle" x="236.5" y="-119.425" font-family="Times New Roman,serif" font-size="14.00">8</text>
</g>
<!-- 3&#45;&#45;4 -->
<g id="edge14" class="edge"><title>3&#45;&#45;4</title>
<path fill="none" stroke="black" d="M170.576,-104.318C153.434,-86.8014 127.417,-60.2132 110.314,-42.7353"/>
<text text-anchor="middle" x="149.5" y="-69.8833" font-family="Times New Roman,serif" font-size="14.00">4</text>
</g>
<!-- 4&#45;&#45;4 -->
<g id="edge15" class="edge"><title>4&#45;&#45;4</title>
<path fill="none" stroke="black" d="M118.443,-32.9625C129.028,-33.5778 138,-30.6041 138,-24.0416 138,-17.4791 129.028,-14.5055 118.443,-15.1207"/>
<text text-anchor="middle" x="141.5" y="-20.3416" font-family="Times New Roman,serif" font-size="14.00">1</text>
</g>
</g>
</svg>
