<?xml version="1.0" encoding="UTF-8" standalone="no"?>
<!DOCTYPE svg PUBLIC "-//W3C//DTD SVG 1.1//EN"
 "http://www.w3.org/Graphics/SVG/1.1/DTD/svg11.dtd">
<!-- Generated by graphviz version 2.38.0 (20140413.2041)
 -->
<!-- Title: %3 Pages: 1 -->
<svg width="248pt" height="404pt"
 viewBox="0.00 0.00 248.00 404.08" xmlns="http://www.w3.org/2000/svg" xmlns:xlink="http://www.w3.org/1999/xlink">
<g id="graph0" class="graph" transform="scale(1 1) rotate(0) translate(4 400.083)">
<title>%3</title>
<polygon fill="white" stroke="none" points="-4,4 -4,-400.083 244,-400.083 244,4 -4,4"/>
<!-- 0 -->
<g id="node1" class="node"><title>0</title>
<ellipse fill="BLACK" stroke="BLACK" cx="101" cy="-372.042" rx="27" ry="24.0833"/>
<text text-anchor="start" x="97.5" y="-374.842" font-family="Times New Roman,serif" font-size="14.00" fill="white">0</text>
<text text-anchor="start" x="91.5" y="-362.442" font-family="Times New Roman,serif" font-size="12.00" fill="white">d=0</text>
</g>
<!-- 0&#45;&#45;0 -->
<g id="edge1" class="edge"><title>0&#45;&#45;0</title>
<path fill="none" stroke="black" d="M126.443,-380.963C137.028,-381.578 146,-378.604 146,-372.042 146,-365.479 137.028,-362.505 126.443,-363.121"/>
<text text-anchor="middle" x="149.5" y="-368.342" font-family="Times New Roman,serif" font-size="14.00">5</text>
</g>
<!-- 1 -->
<g id="node2" class="node"><title>1</title>
<ellipse fill="grey" stroke="grey" cx="101" cy="-279" rx="27" ry="18"/>
<text text-anchor="middle" x="101" y="-275.3" font-family="Times New Roman,serif" font-size="14.00">1</text>
</g>
<!-- 0&#45;&#45;1 -->
<g id="edge2" class="edge"><title>0&#45;&#45;1</title>
<path fill="none" stroke="black" d="M101,-347.596C101,-331.79 101,-311.3 101,-297.041"/>
<text text-anchor="middle" x="104.5" y="-318.8" font-family="Times New Roman,serif" font-size="14.00">9</text>
</g>
<!-- 2 -->
<g id="node3" class="node"><title>2</title>
<ellipse fill="grey" stroke="grey" cx="93" cy="-192" rx="27" ry="18"/>
<text text-anchor="middle" x="93" y="-188.3" font-family="Times New Roman,serif" font-size="14.00">2</text>
</g>
<!-- 0&#45;&#45;2 -->
<g id="edge3" class="edge"><title>0&#45;&#45;2</title>
<path fill="none" stroke="black" d="M86.0638,-351.894C75.9415,-337.644 63.4505,-317.238 58,-297 53.8392,-281.55 54.233,-276.55 58,-261 62.6578,-241.773 73.7503,-221.891 82.2091,-208.631"/>
<text text-anchor="middle" x="61.5" y="-275.3" font-family="Times New Roman,serif" font-size="14.00">8</text>
</g>
<!-- 3 -->
<g id="node4" class="node"><title>3</title>
<ellipse fill="grey" stroke="grey" cx="188" cy="-105" rx="27" ry="18"/>
<text text-anchor="middle" x="188" y="-101.3" font-family="Times New Roman,serif" font-size="14.00">3</text>
</g>
<!-- 0&#45;&#45;3 -->
<g id="edge4" class="edge"><title>0&#45;&#45;3</title>
<path fill="none" stroke="black" d="M118.964,-353.763C132.625,-339.678 150.905,-318.638 162,-297 191.365,-239.729 189.116,-220.091 195,-156 195.61,-149.361 195.657,-147.634 195,-141 194.414,-135.08 193.283,-128.678 192.098,-122.988"/>
<text text-anchor="middle" x="190.5" y="-231.8" font-family="Times New Roman,serif" font-size="14.00">6</text>
</g>
<!-- 4 -->
<g id="node5" class="node"><title>4</title>
<ellipse fill="grey" stroke="grey" cx="93" cy="-18" rx="27" ry="18"/>
<text text-anchor="middle" x="93" y="-14.3" font-family="Times New Roman,serif" font-size="14.00">4</text>
</g>
<!-- 0&#45;&#45;4 -->
<g id="edge5" class="edge"><title>0&#45;&#45;4</title>
<path fill="none" stroke="black" d="M76.5507,-361.646C46.6595,-348.373 0,-321.076 0,-280 0,-280 0,-280 0,-104 0,-66.1586 42.4713,-40.6444 70.0112,-28.0778"/>
<text text-anchor="middle" x="3.5" y="-188.3" font-family="Times New Roman,serif" font-size="14.00">4</text>
</g>
<!-- 1&#45;&#45;1 -->
<g id="edge6" class="edge"><title>1&#45;&#45;1</title>
<path fill="none" stroke="black" d="M125.532,-286.752C136.508,-287.49 146,-284.906 146,-279 146,-273.094 136.508,-270.51 125.532,-271.248"/>
<text text-anchor="middle" x="149.5" y="-275.3" font-family="Times New Roman,serif" font-size="14.00">2</text>
</g>
<!-- 1&#45;&#45;2 -->
<g id="edge7" class="edge"><title>1&#45;&#45;2</title>
<path fill="none" stroke="black" d="M99.3811,-260.799C97.9931,-246.052 96.0038,-224.915 94.6165,-210.175"/>
<text text-anchor="middle" x="100.5" y="-231.8" font-family="Times New Roman,serif" font-size="14.00">4</text>
</g>
<!-- 1&#45;&#45;3 -->
<g id="edge8" class="edge"><title>1&#45;&#45;3</title>
<path fill="none" stroke="black" d="M116.833,-264.164C130.472,-251.406 149.695,-231.271 161,-210 176.057,-181.668 183.07,-144.46 186.05,-123.092"/>
<text text-anchor="middle" x="177.5" y="-188.3" font-family="Times New Roman,serif" font-size="14.00">6</text>
</g>
<!-- 1&#45;&#45;4 -->
<g id="edge9" class="edge"><title>1&#45;&#45;4</title>
<path fill="none" stroke="black" d="M87.6886,-263.084C77.0532,-250.098 62.9738,-230.229 57,-210 38.3162,-146.732 69.164,-68.706 84.7879,-35.3599"/>
<text text-anchor="middle" x="55.5" y="-144.8" font-family="Times New Roman,serif" font-size="14.00">4</text>
</g>
<!-- 2&#45;&#45;2 -->
<g id="edge10" class="edge"><title>2&#45;&#45;2</title>
<path fill="none" stroke="black" d="M117.532,-199.752C128.508,-200.49 138,-197.906 138,-192 138,-186.094 128.508,-183.51 117.532,-184.248"/>
<text text-anchor="middle" x="145" y="-188.3" font-family="Times New Roman,serif" font-size="14.00">10</text>
</g>
<!-- 2&#45;&#45;3 -->
<g id="edge11" class="edge"><title>2&#45;&#45;3</title>
<path fill="none" stroke="black" d="M108.687,-176.964C126.289,-161.215 154.678,-135.815 172.289,-120.057"/>
<text text-anchor="middle" x="149.5" y="-144.8" font-family="Times New Roman,serif" font-size="14.00">3</text>
</g>
<!-- 2&#45;&#45;4 -->
<g id="edge12" class="edge"><title>2&#45;&#45;4</title>
<path fill="none" stroke="black" d="M93,-173.879C93,-140.91 93,-68.9659 93,-36.0516"/>
<text text-anchor="middle" x="96.5" y="-101.3" font-family="Times New Roman,serif" font-size="14.00">5</text>
</g>
<!-- 3&#45;&#45;3 -->
<g id="edge13" class="edge"><title>3&#45;&#45;3</title>
<path fill="none" stroke="black" d="M212.532,-112.752C223.508,-113.49 233,-110.906 233,-105 233,-99.0938 223.508,-96.5098 212.532,-97.248"/>
<text text-anchor="middle" x="236.5" y="-101.3" font-family="Times New Roman,serif" font-size="14.00">8</text>
</g>
<!-- 3&#45;&#45;4 -->
<g id="edge14" class="edge"><title>3&#45;&#45;4</title>
<path fill="none" stroke="black" d="M172.313,-89.964C154.711,-74.2148 126.322,-48.8145 108.711,-33.0569"/>
<text text-anchor="middle" x="149.5" y="-57.8" font-family="Times New Roman,serif" font-size="14.00">4</text>
</g>
<!-- 4&#45;&#45;4 -->
<g id="edge15" class="edge"><title>4&#45;&#45;4</title>
<path fill="none" stroke="black" d="M117.532,-25.752C128.508,-26.4902 138,-23.9063 138,-18 138,-12.0938 128.508,-9.50977 117.532,-10.248"/>
<text text-anchor="middle" x="141.5" y="-14.3" font-family="Times New Roman,serif" font-size="14.00">1</text>
</g>
</g>
</svg>
