<?xml version="1.0" encoding="UTF-8" standalone="no"?>
<!DOCTYPE svg PUBLIC "-//W3C//DTD SVG 1.1//EN"
 "http://www.w3.org/Graphics/SVG/1.1/DTD/svg11.dtd">
<!-- Generated by graphviz version 2.38.0 (20140413.2041)
 -->
<!-- Title: %3 Pages: 1 -->
<svg width="678pt" height="392pt"
 viewBox="0.00 0.00 678.01 392.00" xmlns="http://www.w3.org/2000/svg" xmlns:xlink="http://www.w3.org/1999/xlink">
<g id="graph0" class="graph" transform="scale(1 1) rotate(0) translate(4 388)">
<title>%3</title>
<polygon fill="white" stroke="none" points="-4,4 -4,-388 674.012,-388 674.012,4 -4,4"/>
<!-- 1 -->
<g id="node1" class="node"><title>1</title>
<ellipse fill="none" stroke="black" cx="255.012" cy="-279" rx="27" ry="18"/>
<text text-anchor="middle" x="255.012" y="-275.3" font-family="Times New Roman,serif" font-size="14.00">1</text>
</g>
<!-- 1&#45;&#45;1 -->
<g id="edge1" class="edge"><title>1&#45;&#45;1</title>
<path fill="none" stroke="black" d="M279.544,-286.752C290.52,-287.49 300.012,-284.906 300.012,-279 300.012,-273.094 290.52,-270.51 279.544,-271.248"/>
<text text-anchor="middle" x="307.012" y="-275.3" font-family="Times New Roman,serif" font-size="14.00">27</text>
</g>
<!-- 10 -->
<g id="node2" class="node"><title>10</title>
<ellipse fill="none" stroke="black" cx="296.012" cy="-192" rx="27" ry="18"/>
<text text-anchor="middle" x="296.012" y="-188.3" font-family="Times New Roman,serif" font-size="14.00">10</text>
</g>
<!-- 1&#45;&#45;10 -->
<g id="edge2" class="edge"><title>1&#45;&#45;10</title>
<path fill="none" stroke="black" d="M262.917,-261.611C270.177,-246.56 280.879,-224.374 288.131,-209.339"/>
<text text-anchor="middle" x="284.012" y="-231.8" font-family="Times New Roman,serif" font-size="14.00">26</text>
</g>
<!-- 12 -->
<g id="node11" class="node"><title>12</title>
<ellipse fill="none" stroke="black" cx="335.012" cy="-105" rx="27" ry="18"/>
<text text-anchor="middle" x="335.012" y="-101.3" font-family="Times New Roman,serif" font-size="14.00">12</text>
</g>
<!-- 10&#45;&#45;12 -->
<g id="edge33" class="edge"><title>10&#45;&#45;12</title>
<path fill="none" stroke="black" d="M303.532,-174.611C310.438,-159.56 320.617,-137.374 327.515,-122.339"/>
<text text-anchor="middle" x="324.012" y="-144.8" font-family="Times New Roman,serif" font-size="14.00">10</text>
</g>
<!-- 13 -->
<g id="node12" class="node"><title>13</title>
<ellipse fill="none" stroke="black" cx="89.012" cy="-105" rx="27" ry="18"/>
<text text-anchor="middle" x="89.012" y="-101.3" font-family="Times New Roman,serif" font-size="14.00">13</text>
</g>
<!-- 10&#45;&#45;13 -->
<g id="edge34" class="edge"><title>10&#45;&#45;13</title>
<path fill="none" stroke="black" d="M273.979,-181.581C267.866,-179.045 261.207,-176.354 255.012,-174 232.15,-165.312 225.784,-164.919 203.012,-156 170.412,-143.232 133.42,-126.601 110.649,-116.109"/>
<text text-anchor="middle" x="206.512" y="-144.8" font-family="Times New Roman,serif" font-size="14.00">2</text>
</g>
<!-- 2 -->
<g id="node3" class="node"><title>2</title>
<ellipse fill="none" stroke="black" cx="551.012" cy="-366" rx="27" ry="18"/>
<text text-anchor="middle" x="551.012" y="-362.3" font-family="Times New Roman,serif" font-size="14.00">2</text>
</g>
<!-- 2&#45;&#45;2 -->
<g id="edge3" class="edge"><title>2&#45;&#45;2</title>
<path fill="none" stroke="black" d="M575.544,-373.752C586.52,-374.49 596.012,-371.906 596.012,-366 596.012,-360.094 586.52,-357.51 575.544,-358.248"/>
<text text-anchor="middle" x="603.012" y="-362.3" font-family="Times New Roman,serif" font-size="14.00">10</text>
</g>
<!-- 3 -->
<g id="node4" class="node"><title>3</title>
<ellipse fill="none" stroke="black" cx="551.012" cy="-279" rx="27" ry="18"/>
<text text-anchor="middle" x="551.012" y="-275.3" font-family="Times New Roman,serif" font-size="14.00">3</text>
</g>
<!-- 2&#45;&#45;3 -->
<g id="edge4" class="edge"><title>2&#45;&#45;3</title>
<path fill="none" stroke="black" d="M551.012,-347.799C551.012,-333.052 551.012,-311.915 551.012,-297.175"/>
<text text-anchor="middle" x="558.012" y="-318.8" font-family="Times New Roman,serif" font-size="14.00">42</text>
</g>
<!-- 7 -->
<g id="node5" class="node"><title>7</title>
<ellipse fill="none" stroke="black" cx="359.012" cy="-279" rx="27" ry="18"/>
<text text-anchor="middle" x="359.012" y="-275.3" font-family="Times New Roman,serif" font-size="14.00">7</text>
</g>
<!-- 2&#45;&#45;7 -->
<g id="edge5" class="edge"><title>2&#45;&#45;7</title>
<path fill="none" stroke="black" d="M528.987,-355.249C492.05,-338.897 418.038,-306.131 381.075,-289.767"/>
<text text-anchor="middle" x="473.012" y="-318.8" font-family="Times New Roman,serif" font-size="14.00">20</text>
</g>
<!-- 11 -->
<g id="node6" class="node"><title>11</title>
<ellipse fill="none" stroke="black" cx="610.012" cy="-192" rx="27" ry="18"/>
<text text-anchor="middle" x="610.012" y="-188.3" font-family="Times New Roman,serif" font-size="14.00">11</text>
</g>
<!-- 2&#45;&#45;11 -->
<g id="edge6" class="edge"><title>2&#45;&#45;11</title>
<path fill="none" stroke="black" d="M560.681,-348.95C568.53,-335.44 579.491,-315.428 587.012,-297 596.47,-273.824 597.706,-267.463 603.012,-243 605.353,-232.207 607.085,-219.926 608.241,-210.236"/>
<text text-anchor="middle" x="605.012" y="-275.3" font-family="Times New Roman,serif" font-size="14.00">28</text>
</g>
<!-- 14 -->
<g id="node7" class="node"><title>14</title>
<ellipse fill="none" stroke="black" cx="144.012" cy="-18" rx="27" ry="18"/>
<text text-anchor="middle" x="144.012" y="-14.3" font-family="Times New Roman,serif" font-size="14.00">14</text>
</g>
<!-- 2&#45;&#45;14 -->
<g id="edge7" class="edge"><title>2&#45;&#45;14</title>
<path fill="none" stroke="black" d="M523.992,-365.132C433.091,-364.859 144.012,-357.869 144.012,-280 144.012,-280 144.012,-280 144.012,-104 144.012,-80.5365 144.012,-53.4297 144.012,-36.2564"/>
<text text-anchor="middle" x="151.012" y="-188.3" font-family="Times New Roman,serif" font-size="14.00">28</text>
</g>
<!-- 3&#45;&#45;10 -->
<g id="edge10" class="edge"><title>3&#45;&#45;10</title>
<path fill="none" stroke="black" d="M526.684,-271.102C486.708,-259.582 404.794,-235.197 337.012,-210 330.8,-207.691 324.135,-205.015 318.022,-202.479"/>
<text text-anchor="middle" x="437.012" y="-231.8" font-family="Times New Roman,serif" font-size="14.00">26</text>
</g>
<!-- 3&#45;&#45;11 -->
<g id="edge11" class="edge"><title>3&#45;&#45;11</title>
<path fill="none" stroke="black" d="M561.638,-262.173C568.297,-252.306 577.089,-239.368 585.012,-228 589.453,-221.629 594.411,-214.658 598.734,-208.626"/>
<text text-anchor="middle" x="592.012" y="-231.8" font-family="Times New Roman,serif" font-size="14.00">22</text>
</g>
<!-- 4 -->
<g id="node8" class="node"><title>4</title>
<ellipse fill="none" stroke="black" cx="456.012" cy="-192" rx="27" ry="18"/>
<text text-anchor="middle" x="456.012" y="-188.3" font-family="Times New Roman,serif" font-size="14.00">4</text>
</g>
<!-- 3&#45;&#45;4 -->
<g id="edge8" class="edge"><title>3&#45;&#45;4</title>
<path fill="none" stroke="black" d="M535.325,-263.964C517.723,-248.215 489.334,-222.815 471.723,-207.057"/>
<text text-anchor="middle" x="512.512" y="-231.8" font-family="Times New Roman,serif" font-size="14.00">8</text>
</g>
<!-- 6 -->
<g id="node9" class="node"><title>6</title>
<ellipse fill="none" stroke="black" cx="527.012" cy="-105" rx="27" ry="18"/>
<text text-anchor="middle" x="527.012" y="-101.3" font-family="Times New Roman,serif" font-size="14.00">6</text>
</g>
<!-- 3&#45;&#45;6 -->
<g id="edge9" class="edge"><title>3&#45;&#45;6</title>
<path fill="none" stroke="black" d="M548.623,-260.879C544.023,-227.91 533.984,-155.966 529.391,-123.052"/>
<text text-anchor="middle" x="548.012" y="-188.3" font-family="Times New Roman,serif" font-size="14.00">29</text>
</g>
<!-- 15 -->
<g id="node10" class="node"><title>15</title>
<ellipse fill="none" stroke="black" cx="335.012" cy="-18" rx="27" ry="18"/>
<text text-anchor="middle" x="335.012" y="-14.3" font-family="Times New Roman,serif" font-size="14.00">15</text>
</g>
<!-- 3&#45;&#45;15 -->
<g id="edge12" class="edge"><title>3&#45;&#45;15</title>
<path fill="none" stroke="black" d="M571.089,-266.626C596.484,-251.765 637.899,-225.784 646.012,-210 672.168,-159.112 651.716,-123.928 608.012,-87 535.446,-25.6855 415.559,-18.2877 362.145,-18.2719"/>
<text text-anchor="middle" x="663.012" y="-144.8" font-family="Times New Roman,serif" font-size="14.00">14</text>
</g>
<!-- 7&#45;&#45;10 -->
<g id="edge24" class="edge"><title>7&#45;&#45;10</title>
<path fill="none" stroke="black" d="M346.53,-262.833C341.606,-256.738 335.956,-249.603 331.012,-243 322.629,-231.804 313.585,-218.861 306.791,-208.948"/>
<text text-anchor="middle" x="338.012" y="-231.8" font-family="Times New Roman,serif" font-size="14.00">19</text>
</g>
<!-- 7&#45;&#45;7 -->
<g id="edge23" class="edge"><title>7&#45;&#45;7</title>
<path fill="none" stroke="black" d="M383.544,-286.752C394.52,-287.49 404.012,-284.906 404.012,-279 404.012,-273.094 394.52,-270.51 383.544,-271.248"/>
<text text-anchor="middle" x="411.012" y="-275.3" font-family="Times New Roman,serif" font-size="14.00">26</text>
</g>
<!-- 7&#45;&#45;11 -->
<g id="edge25" class="edge"><title>7&#45;&#45;11</title>
<path fill="none" stroke="black" d="M382.547,-270.164C402.141,-263.464 430.668,-253.296 455.012,-243 469.109,-237.038 471.542,-232.99 486.012,-228 521.696,-215.693 532.989,-221.274 569.012,-210 575.336,-208.021 582.039,-205.453 588.151,-202.915"/>
<text text-anchor="middle" x="489.512" y="-231.8" font-family="Times New Roman,serif" font-size="14.00">4</text>
</g>
<!-- 7&#45;&#45;15 -->
<g id="edge27" class="edge"><title>7&#45;&#45;15</title>
<path fill="none" stroke="black" d="M369.034,-262.11C388.781,-228.653 428.665,-148.933 403.012,-87 393.109,-63.0917 370.27,-43.2066 353.789,-31.2374"/>
<text text-anchor="middle" x="414.512" y="-144.8" font-family="Times New Roman,serif" font-size="14.00">4</text>
</g>
<!-- 7&#45;&#45;12 -->
<g id="edge26" class="edge"><title>7&#45;&#45;12</title>
<path fill="none" stroke="black" d="M356.623,-260.879C352.023,-227.91 341.984,-155.966 337.391,-123.052"/>
<text text-anchor="middle" x="356.012" y="-188.3" font-family="Times New Roman,serif" font-size="14.00">48</text>
</g>
<!-- 11&#45;&#45;14 -->
<g id="edge35" class="edge"><title>11&#45;&#45;14</title>
<path fill="none" stroke="black" d="M607.321,-173.967C602.669,-150.513 590.801,-108.717 563.012,-87 531.801,-62.6094 257.478,-31.2244 170.41,-21.7971"/>
<text text-anchor="middle" x="597.012" y="-101.3" font-family="Times New Roman,serif" font-size="14.00">12</text>
</g>
<!-- 4&#45;&#45;14 -->
<g id="edge17" class="edge"><title>4&#45;&#45;14</title>
<path fill="none" stroke="black" d="M448.863,-174.638C444.471,-164.8 438.628,-152.079 433.012,-141 420.6,-116.511 421.671,-107.14 403.012,-87 384.916,-67.4685 377.791,-63.7436 353.012,-54 290.87,-29.5644 211.788,-22.1847 171.022,-19.9589"/>
<text text-anchor="middle" x="431.012" y="-101.3" font-family="Times New Roman,serif" font-size="14.00">22</text>
</g>
<!-- 4&#45;&#45;4 -->
<g id="edge13" class="edge"><title>4&#45;&#45;4</title>
<path fill="none" stroke="black" d="M480.544,-199.752C491.52,-200.49 501.012,-197.906 501.012,-192 501.012,-186.094 491.52,-183.51 480.544,-184.248"/>
<text text-anchor="middle" x="508.012" y="-188.3" font-family="Times New Roman,serif" font-size="14.00">50</text>
</g>
<!-- 4&#45;&#45;6 -->
<g id="edge14" class="edge"><title>4&#45;&#45;6</title>
<path fill="none" stroke="black" d="M468.705,-175.804C481.629,-160.332 501.545,-136.489 514.429,-121.065"/>
<text text-anchor="middle" x="502.012" y="-144.8" font-family="Times New Roman,serif" font-size="14.00">21</text>
</g>
<!-- 4&#45;&#45;12 -->
<g id="edge15" class="edge"><title>4&#45;&#45;12</title>
<path fill="none" stroke="black" d="M435.416,-180.346C423.33,-173.812 407.941,-164.995 395.012,-156 378.984,-144.849 362.003,-130.423 350.212,-119.934"/>
<text text-anchor="middle" x="398.512" y="-144.8" font-family="Times New Roman,serif" font-size="14.00">6</text>
</g>
<!-- 4&#45;&#45;13 -->
<g id="edge16" class="edge"><title>4&#45;&#45;13</title>
<path fill="none" stroke="black" d="M430.741,-185.541C388.801,-176.477 308.114,-159.014 295.012,-156 229.557,-140.944 152.735,-121.944 114.017,-112.275"/>
<text text-anchor="middle" x="302.012" y="-144.8" font-family="Times New Roman,serif" font-size="14.00">16</text>
</g>
<!-- 12&#45;&#45;15 -->
<g id="edge37" class="edge"><title>12&#45;&#45;15</title>
<path fill="none" stroke="black" d="M335.012,-86.799C335.012,-72.0519 335.012,-50.9152 335.012,-36.1754"/>
<text text-anchor="middle" x="342.012" y="-57.8" font-family="Times New Roman,serif" font-size="14.00">16</text>
</g>
<!-- 12&#45;&#45;12 -->
<g id="edge36" class="edge"><title>12&#45;&#45;12</title>
<path fill="none" stroke="black" d="M359.544,-112.752C370.52,-113.49 380.012,-110.906 380.012,-105 380.012,-99.0938 370.52,-96.5098 359.544,-97.248"/>
<text text-anchor="middle" x="387.012" y="-101.3" font-family="Times New Roman,serif" font-size="14.00">14</text>
</g>
<!-- 13&#45;&#45;14 -->
<g id="edge38" class="edge"><title>13&#45;&#45;14</title>
<path fill="none" stroke="black" d="M97.0493,-87.3568C102.079,-77.4193 108.931,-64.6927 116.012,-54 120.566,-47.1229 126.15,-39.9402 131.129,-33.8841"/>
<text text-anchor="middle" x="123.012" y="-57.8" font-family="Times New Roman,serif" font-size="14.00">16</text>
</g>
<!-- 5 -->
<g id="node13" class="node"><title>5</title>
<ellipse fill="none" stroke="black" cx="28.012" cy="-366" rx="27" ry="18"/>
<text text-anchor="middle" x="28.012" y="-362.3" font-family="Times New Roman,serif" font-size="14.00">5</text>
</g>
<!-- 5&#45;&#45;10 -->
<g id="edge20" class="edge"><title>5&#45;&#45;10</title>
<path fill="none" stroke="black" d="M48.2299,-353.729C85.0996,-332.97 165.414,-286.799 230.012,-243 247.264,-231.302 266.147,-216.815 279.278,-206.451"/>
<text text-anchor="middle" x="203.512" y="-275.3" font-family="Times New Roman,serif" font-size="14.00">4</text>
</g>
<!-- 5&#45;&#45;7 -->
<g id="edge18" class="edge"><title>5&#45;&#45;7</title>
<path fill="none" stroke="black" d="M54.1857,-360.912C106.321,-352.348 226.431,-330.499 323.012,-297 328.106,-295.233 333.437,-292.965 338.389,-290.665"/>
<text text-anchor="middle" x="266.012" y="-318.8" font-family="Times New Roman,serif" font-size="14.00">20</text>
</g>
<!-- 5&#45;&#45;15 -->
<g id="edge22" class="edge"><title>5&#45;&#45;15</title>
<path fill="none" stroke="black" d="M42.7613,-350.438C64.2012,-329.588 105.616,-290.492 144.012,-261 176.86,-235.769 200.744,-245.542 222.012,-210 237.818,-183.586 215.929,-169.312 228.012,-141 248.027,-94.0999 293.228,-52.5325 317.995,-32.2021"/>
<text text-anchor="middle" x="230.512" y="-188.3" font-family="Times New Roman,serif" font-size="14.00">6</text>
</g>
<!-- 5&#45;&#45;13 -->
<g id="edge21" class="edge"><title>5&#45;&#45;13</title>
<path fill="none" stroke="black" d="M21.5411,-348.25C9.33133,-313.858 -13.5979,-233.515 13.012,-174 24.3578,-148.624 50.3719,-128.798 68.7954,-117.258"/>
<text text-anchor="middle" x="8.01199" y="-231.8" font-family="Times New Roman,serif" font-size="14.00">18</text>
</g>
<!-- 8 -->
<g id="node14" class="node"><title>8</title>
<ellipse fill="none" stroke="black" cx="51.012" cy="-279" rx="27" ry="18"/>
<text text-anchor="middle" x="51.012" y="-275.3" font-family="Times New Roman,serif" font-size="14.00">8</text>
</g>
<!-- 5&#45;&#45;8 -->
<g id="edge19" class="edge"><title>5&#45;&#45;8</title>
<path fill="none" stroke="black" d="M26.1239,-347.986C25.5779,-338.147 25.8279,-325.647 29.012,-315 31.1094,-307.986 35.028,-301.005 38.9836,-295.144"/>
<text text-anchor="middle" x="36.012" y="-318.8" font-family="Times New Roman,serif" font-size="14.00">23</text>
</g>
<!-- 8&#45;&#45;14 -->
<g id="edge30" class="edge"><title>8&#45;&#45;14</title>
<path fill="none" stroke="black" d="M39.3076,-262.512C30.1305,-249.336 18.0909,-229.5 13.012,-210 8.97922,-194.517 9.59102,-189.63 13.012,-174 22.1113,-132.426 26.2519,-120.092 53.012,-87 72.854,-62.4633 103.44,-42.035 123.59,-30.1642"/>
<text text-anchor="middle" x="25.512" y="-144.8" font-family="Times New Roman,serif" font-size="14.00">2</text>
</g>
<!-- 8&#45;&#45;12 -->
<g id="edge29" class="edge"><title>8&#45;&#45;12</title>
<path fill="none" stroke="black" d="M71.0967,-266.628C93.6716,-253.635 131.195,-231.394 162.012,-210 183.338,-195.195 185.856,-187.53 208.012,-174 224.305,-164.051 230.031,-164.723 247.012,-156 271.082,-143.635 298.038,-128.053 315.697,-117.599"/>
<text text-anchor="middle" x="215.012" y="-188.3" font-family="Times New Roman,serif" font-size="14.00">20</text>
</g>
<!-- 9 -->
<g id="node15" class="node"><title>9</title>
<ellipse fill="none" stroke="black" cx="49.012" cy="-192" rx="27" ry="18"/>
<text text-anchor="middle" x="49.012" y="-188.3" font-family="Times New Roman,serif" font-size="14.00">9</text>
</g>
<!-- 8&#45;&#45;9 -->
<g id="edge28" class="edge"><title>8&#45;&#45;9</title>
<path fill="none" stroke="black" d="M50.6073,-260.799C50.2603,-246.052 49.7629,-224.915 49.4161,-210.175"/>
<text text-anchor="middle" x="58.012" y="-231.8" font-family="Times New Roman,serif" font-size="14.00">24</text>
</g>
<!-- 9&#45;&#45;13 -->
<g id="edge32" class="edge"><title>9&#45;&#45;13</title>
<path fill="none" stroke="black" d="M56.7244,-174.611C63.8075,-159.56 74.2477,-137.374 81.3233,-122.339"/>
<text text-anchor="middle" x="79.012" y="-144.8" font-family="Times New Roman,serif" font-size="14.00">13</text>
</g>
<!-- 9&#45;&#45;9 -->
<g id="edge31" class="edge"><title>9&#45;&#45;9</title>
<path fill="none" stroke="black" d="M73.5445,-199.752C84.5198,-200.49 94.012,-197.906 94.012,-192 94.012,-186.094 84.5198,-183.51 73.5445,-184.248"/>
<text text-anchor="middle" x="101.012" y="-188.3" font-family="Times New Roman,serif" font-size="14.00">14</text>
</g>
</g>
</svg>
