<?xml version="1.0" encoding="UTF-8" standalone="no"?>
<!DOCTYPE svg PUBLIC "-//W3C//DTD SVG 1.1//EN"
 "http://www.w3.org/Graphics/SVG/1.1/DTD/svg11.dtd">
<!-- Generated by graphviz version 2.38.0 (20140413.2041)
 -->
<!-- Title: %3 Pages: 1 -->
<svg width="248pt" height="416pt"
 viewBox="0.00 0.00 248.00 416.17" xmlns="http://www.w3.org/2000/svg" xmlns:xlink="http://www.w3.org/1999/xlink">
<g id="graph0" class="graph" transform="scale(1 1) rotate(0) translate(4 412.167)">
<title>%3</title>
<polygon fill="white" stroke="none" points="-4,4 -4,-412.167 244,-412.167 244,4 -4,4"/>
<!-- 0 -->
<g id="node1" class="node"><title>0</title>
<ellipse fill="BLACK" stroke="BLACK" cx="101" cy="-384.125" rx="27" ry="24.0833"/>
<text text-anchor="start" x="97.5" y="-386.925" font-family="Times New Roman,serif" font-size="14.00" fill="white">0</text>
<text text-anchor="start" x="91.5" y="-374.525" font-family="Times New Roman,serif" font-size="12.00" fill="white">d=0</text>
</g>
<!-- 0&#45;&#45;0 -->
<g id="edge1" class="edge"><title>0&#45;&#45;0</title>
<path fill="none" stroke="black" d="M126.443,-393.046C137.028,-393.661 146,-390.687 146,-384.125 146,-377.562 137.028,-374.589 126.443,-375.204"/>
<text text-anchor="middle" x="149.5" y="-380.425" font-family="Times New Roman,serif" font-size="14.00">5</text>
</g>
<!-- 1 -->
<g id="node2" class="node"><title>1</title>
<ellipse fill="BLACK" stroke="BLACK" cx="101" cy="-285.042" rx="27" ry="24.0833"/>
<text text-anchor="start" x="97.5" y="-287.842" font-family="Times New Roman,serif" font-size="14.00" fill="white">1</text>
<text text-anchor="start" x="91.5" y="-275.442" font-family="Times New Roman,serif" font-size="12.00" fill="white">d=9</text>
</g>
<!-- 0&#45;&#45;1 -->
<g id="edge2" class="edge"><title>0&#45;&#45;1</title>
<path fill="none" stroke="black" d="M101,-359.624C101,-344.36 101,-324.547 101,-309.326"/>
<text text-anchor="middle" x="104.5" y="-330.883" font-family="Times New Roman,serif" font-size="14.00">9</text>
</g>
<!-- 2 -->
<g id="node3" class="node"><title>2</title>
<ellipse fill="grey" stroke="grey" cx="93" cy="-192" rx="27" ry="18"/>
<text text-anchor="middle" x="93" y="-188.3" font-family="Times New Roman,serif" font-size="14.00">2</text>
</g>
<!-- 0&#45;&#45;2 -->
<g id="edge3" class="edge"><title>0&#45;&#45;2</title>
<path fill="none" stroke="black" d="M86.0638,-363.977C75.9415,-349.728 63.4505,-329.322 58,-309.083 52.4426,-288.448 52.9686,-281.77 58,-261 62.6578,-241.773 73.7503,-221.891 82.2091,-208.631"/>
<text text-anchor="middle" x="61.5" y="-281.342" font-family="Times New Roman,serif" font-size="14.00">8</text>
</g>
<!-- 3 -->
<g id="node4" class="node"><title>3</title>
<ellipse fill="grey" stroke="grey" cx="188" cy="-105" rx="27" ry="18"/>
<text text-anchor="middle" x="188" y="-101.3" font-family="Times New Roman,serif" font-size="14.00">3</text>
</g>
<!-- 0&#45;&#45;3 -->
<g id="edge4" class="edge"><title>0&#45;&#45;3</title>
<path fill="none" stroke="black" d="M119.146,-365.939C132.908,-351.903 151.235,-330.887 162,-309.083 192.812,-246.675 188.637,-225.308 195,-156 195.61,-149.361 195.657,-147.634 195,-141 194.414,-135.08 193.283,-128.678 192.098,-122.988"/>
<text text-anchor="middle" x="191.5" y="-231.8" font-family="Times New Roman,serif" font-size="14.00">6</text>
</g>
<!-- 4 -->
<g id="node5" class="node"><title>4</title>
<ellipse fill="grey" stroke="grey" cx="93" cy="-18" rx="27" ry="18"/>
<text text-anchor="middle" x="93" y="-14.3" font-family="Times New Roman,serif" font-size="14.00">4</text>
</g>
<!-- 0&#45;&#45;4 -->
<g id="edge5" class="edge"><title>0&#45;&#45;4</title>
<path fill="none" stroke="black" d="M77.0644,-372.901C47.1973,-358.343 0,-328.605 0,-286.042 0,-286.042 0,-286.042 0,-104 0,-66.1586 42.4713,-40.6444 70.0112,-28.0778"/>
<text text-anchor="middle" x="3.5" y="-188.3" font-family="Times New Roman,serif" font-size="14.00">4</text>
</g>
<!-- 1&#45;&#45;1 -->
<g id="edge6" class="edge"><title>1&#45;&#45;1</title>
<path fill="none" stroke="black" d="M126.443,-293.963C137.028,-294.578 146,-291.604 146,-285.042 146,-278.479 137.028,-275.505 126.443,-276.121"/>
<text text-anchor="middle" x="149.5" y="-281.342" font-family="Times New Roman,serif" font-size="14.00">2</text>
</g>
<!-- 1&#45;&#45;2 -->
<g id="edge7" class="edge"><title>1&#45;&#45;2</title>
<path fill="none" stroke="black" d="M98.9398,-260.596C97.5509,-244.79 95.7504,-224.3 94.4974,-210.041"/>
<text text-anchor="middle" x="100.5" y="-231.8" font-family="Times New Roman,serif" font-size="14.00">4</text>
</g>
<!-- 1&#45;&#45;3 -->
<g id="edge8" class="edge"><title>1&#45;&#45;3</title>
<path fill="none" stroke="black" d="M118.684,-266.722C132.129,-252.614 150.114,-231.564 161,-210 175.46,-181.358 182.677,-144.256 185.857,-122.992"/>
<text text-anchor="middle" x="177.5" y="-188.3" font-family="Times New Roman,serif" font-size="14.00">6</text>
</g>
<!-- 1&#45;&#45;4 -->
<g id="edge9" class="edge"><title>1&#45;&#45;4</title>
<path fill="none" stroke="black" d="M85.7211,-264.949C75.3655,-250.727 62.5849,-230.33 57,-210 39.5253,-146.388 69.7355,-68.5431 84.9905,-35.3021"/>
<text text-anchor="middle" x="56.5" y="-144.8" font-family="Times New Roman,serif" font-size="14.00">4</text>
</g>
<!-- 2&#45;&#45;2 -->
<g id="edge10" class="edge"><title>2&#45;&#45;2</title>
<path fill="none" stroke="black" d="M117.532,-199.752C128.508,-200.49 138,-197.906 138,-192 138,-186.094 128.508,-183.51 117.532,-184.248"/>
<text text-anchor="middle" x="145" y="-188.3" font-family="Times New Roman,serif" font-size="14.00">10</text>
</g>
<!-- 2&#45;&#45;3 -->
<g id="edge11" class="edge"><title>2&#45;&#45;3</title>
<path fill="none" stroke="black" d="M108.687,-176.964C126.289,-161.215 154.678,-135.815 172.289,-120.057"/>
<text text-anchor="middle" x="149.5" y="-144.8" font-family="Times New Roman,serif" font-size="14.00">3</text>
</g>
<!-- 2&#45;&#45;4 -->
<g id="edge12" class="edge"><title>2&#45;&#45;4</title>
<path fill="none" stroke="black" d="M93,-173.879C93,-140.91 93,-68.9659 93,-36.0516"/>
<text text-anchor="middle" x="96.5" y="-101.3" font-family="Times New Roman,serif" font-size="14.00">5</text>
</g>
<!-- 3&#45;&#45;3 -->
<g id="edge13" class="edge"><title>3&#45;&#45;3</title>
<path fill="none" stroke="black" d="M212.532,-112.752C223.508,-113.49 233,-110.906 233,-105 233,-99.0938 223.508,-96.5098 212.532,-97.248"/>
<text text-anchor="middle" x="236.5" y="-101.3" font-family="Times New Roman,serif" font-size="14.00">8</text>
</g>
<!-- 3&#45;&#45;4 -->
<g id="edge14" class="edge"><title>3&#45;&#45;4</title>
<path fill="none" stroke="black" d="M172.313,-89.964C154.711,-74.2148 126.322,-48.8145 108.711,-33.0569"/>
<text text-anchor="middle" x="149.5" y="-57.8" font-family="Times New Roman,serif" font-size="14.00">4</text>
</g>
<!-- 4&#45;&#45;4 -->
<g id="edge15" class="edge"><title>4&#45;&#45;4</title>
<path fill="none" stroke="black" d="M117.532,-25.752C128.508,-26.4902 138,-23.9063 138,-18 138,-12.0938 128.508,-9.50977 117.532,-10.248"/>
<text text-anchor="middle" x="141.5" y="-14.3" font-family="Times New Roman,serif" font-size="14.00">1</text>
</g>
</g>
</svg>
