<?xml version="1.0" encoding="UTF-8" standalone="no"?>
<!DOCTYPE svg PUBLIC "-//W3C//DTD SVG 1.1//EN"
 "http://www.w3.org/Graphics/SVG/1.1/DTD/svg11.dtd">
<!-- Generated by graphviz version 2.38.0 (20140413.2041)
 -->
<!-- Title: %3 Pages: 1 -->
<svg width="248pt" height="428pt"
 viewBox="0.00 0.00 248.00 428.25" xmlns="http://www.w3.org/2000/svg" xmlns:xlink="http://www.w3.org/1999/xlink">
<g id="graph0" class="graph" transform="scale(1 1) rotate(0) translate(4 424.25)">
<title>%3</title>
<polygon fill="white" stroke="none" points="-4,4 -4,-424.25 244,-424.25 244,4 -4,4"/>
<!-- 0 -->
<g id="node1" class="node"><title>0</title>
<ellipse fill="BLACK" stroke="BLACK" cx="101" cy="-396.208" rx="27" ry="24.0833"/>
<text text-anchor="start" x="97.5" y="-399.008" font-family="Times New Roman,serif" font-size="14.00" fill="white">0</text>
<text text-anchor="start" x="91.5" y="-386.608" font-family="Times New Roman,serif" font-size="12.00" fill="white">d=0</text>
</g>
<!-- 0&#45;&#45;0 -->
<g id="edge1" class="edge"><title>0&#45;&#45;0</title>
<path fill="none" stroke="black" d="M126.443,-405.129C137.028,-405.744 146,-402.771 146,-396.208 146,-389.646 137.028,-386.672 126.443,-387.287"/>
<text text-anchor="middle" x="149.5" y="-392.508" font-family="Times New Roman,serif" font-size="14.00">5</text>
</g>
<!-- 1 -->
<g id="node2" class="node"><title>1</title>
<ellipse fill="BLACK" stroke="BLACK" cx="101" cy="-297.125" rx="27" ry="24.0833"/>
<text text-anchor="start" x="97.5" y="-299.925" font-family="Times New Roman,serif" font-size="14.00" fill="white">1</text>
<text text-anchor="start" x="91.5" y="-287.525" font-family="Times New Roman,serif" font-size="12.00" fill="white">d=9</text>
</g>
<!-- 0&#45;&#45;1 -->
<g id="edge2" class="edge"><title>0&#45;&#45;1</title>
<path fill="none" stroke="black" d="M101,-371.707C101,-356.443 101,-336.63 101,-321.41"/>
<text text-anchor="middle" x="104.5" y="-342.967" font-family="Times New Roman,serif" font-size="14.00">9</text>
</g>
<!-- 2 -->
<g id="node3" class="node"><title>2</title>
<ellipse fill="BLACK" stroke="BLACK" cx="93" cy="-198.042" rx="27" ry="24.0833"/>
<text text-anchor="start" x="89.5" y="-200.842" font-family="Times New Roman,serif" font-size="14.00" fill="white">2</text>
<text text-anchor="start" x="83.5" y="-188.442" font-family="Times New Roman,serif" font-size="12.00" fill="white">d=8</text>
</g>
<!-- 0&#45;&#45;2 -->
<g id="edge3" class="edge"><title>0&#45;&#45;2</title>
<path fill="none" stroke="black" d="M86.0638,-376.06C75.9415,-361.811 63.4505,-341.405 58,-321.167 52.4426,-300.531 53.3199,-293.935 58,-273.083 62.297,-253.938 72.1319,-233.918 80.2855,-219.53"/>
<text text-anchor="middle" x="61.5" y="-293.425" font-family="Times New Roman,serif" font-size="14.00">8</text>
</g>
<!-- 3 -->
<g id="node4" class="node"><title>3</title>
<ellipse fill="grey" stroke="grey" cx="188" cy="-105" rx="27" ry="18"/>
<text text-anchor="middle" x="188" y="-101.3" font-family="Times New Roman,serif" font-size="14.00">3</text>
</g>
<!-- 0&#45;&#45;3 -->
<g id="edge4" class="edge"><title>0&#45;&#45;3</title>
<path fill="none" stroke="black" d="M118.975,-377.936C132.642,-363.853 150.925,-342.815 162,-321.167 196.134,-254.444 191.488,-230.811 196,-156 196.401,-149.345 196.747,-147.625 196,-141 195.329,-135.054 194.036,-128.646 192.683,-122.958"/>
<text text-anchor="middle" x="193.5" y="-243.883" font-family="Times New Roman,serif" font-size="14.00">6</text>
</g>
<!-- 4 -->
<g id="node5" class="node"><title>4</title>
<ellipse fill="grey" stroke="grey" cx="93" cy="-18" rx="27" ry="18"/>
<text text-anchor="middle" x="93" y="-14.3" font-family="Times New Roman,serif" font-size="14.00">4</text>
</g>
<!-- 0&#45;&#45;4 -->
<g id="edge5" class="edge"><title>0&#45;&#45;4</title>
<path fill="none" stroke="black" d="M77.0644,-384.984C47.1973,-370.426 0,-340.688 0,-298.125 0,-298.125 0,-298.125 0,-104 0,-66.1586 42.4713,-40.6444 70.0112,-28.0778"/>
<text text-anchor="middle" x="3.5" y="-194.342" font-family="Times New Roman,serif" font-size="14.00">4</text>
</g>
<!-- 1&#45;&#45;1 -->
<g id="edge6" class="edge"><title>1&#45;&#45;1</title>
<path fill="none" stroke="black" d="M126.443,-306.046C137.028,-306.661 146,-303.687 146,-297.125 146,-290.562 137.028,-287.589 126.443,-288.204"/>
<text text-anchor="middle" x="149.5" y="-293.425" font-family="Times New Roman,serif" font-size="14.00">2</text>
</g>
<!-- 1&#45;&#45;2 -->
<g id="edge7" class="edge"><title>1&#45;&#45;2</title>
<path fill="none" stroke="black" d="M99.1041,-273.118C97.8381,-257.754 96.1789,-237.619 94.91,-222.22"/>
<text text-anchor="middle" x="100.5" y="-243.883" font-family="Times New Roman,serif" font-size="14.00">4</text>
</g>
<!-- 1&#45;&#45;3 -->
<g id="edge8" class="edge"><title>1&#45;&#45;3</title>
<path fill="none" stroke="black" d="M118.836,-278.882C132.366,-264.815 150.389,-243.784 161,-222.083 176.996,-189.368 183.759,-146.769 186.424,-123.339"/>
<text text-anchor="middle" x="180.5" y="-194.342" font-family="Times New Roman,serif" font-size="14.00">6</text>
</g>
<!-- 1&#45;&#45;4 -->
<g id="edge9" class="edge"><title>1&#45;&#45;4</title>
<path fill="none" stroke="black" d="M85.7211,-277.032C75.3655,-262.81 62.5849,-242.414 57,-222.083 38.2669,-153.89 69.8652,-70.0442 85.2848,-35.2849"/>
<text text-anchor="middle" x="56.5" y="-144.8" font-family="Times New Roman,serif" font-size="14.00">4</text>
</g>
<!-- 2&#45;&#45;2 -->
<g id="edge10" class="edge"><title>2&#45;&#45;2</title>
<path fill="none" stroke="black" d="M118.443,-206.963C129.028,-207.578 138,-204.604 138,-198.042 138,-191.479 129.028,-188.505 118.443,-189.121"/>
<text text-anchor="middle" x="145" y="-194.342" font-family="Times New Roman,serif" font-size="14.00">10</text>
</g>
<!-- 2&#45;&#45;3 -->
<g id="edge11" class="edge"><title>2&#45;&#45;3</title>
<path fill="none" stroke="black" d="M110.869,-179.917C128.821,-162.713 156.174,-136.5 173.024,-120.352"/>
<text text-anchor="middle" x="152.5" y="-144.8" font-family="Times New Roman,serif" font-size="14.00">3</text>
</g>
<!-- 2&#45;&#45;4 -->
<g id="edge12" class="edge"><title>2&#45;&#45;4</title>
<path fill="none" stroke="black" d="M93,-173.766C93,-137.571 93,-68.6124 93,-36.3956"/>
<text text-anchor="middle" x="96.5" y="-101.3" font-family="Times New Roman,serif" font-size="14.00">5</text>
</g>
<!-- 3&#45;&#45;3 -->
<g id="edge13" class="edge"><title>3&#45;&#45;3</title>
<path fill="none" stroke="black" d="M212.532,-112.752C223.508,-113.49 233,-110.906 233,-105 233,-99.0938 223.508,-96.5098 212.532,-97.248"/>
<text text-anchor="middle" x="236.5" y="-101.3" font-family="Times New Roman,serif" font-size="14.00">8</text>
</g>
<!-- 3&#45;&#45;4 -->
<g id="edge14" class="edge"><title>3&#45;&#45;4</title>
<path fill="none" stroke="black" d="M172.313,-89.964C154.711,-74.2148 126.322,-48.8145 108.711,-33.0569"/>
<text text-anchor="middle" x="149.5" y="-57.8" font-family="Times New Roman,serif" font-size="14.00">4</text>
</g>
<!-- 4&#45;&#45;4 -->
<g id="edge15" class="edge"><title>4&#45;&#45;4</title>
<path fill="none" stroke="black" d="M117.532,-25.752C128.508,-26.4902 138,-23.9063 138,-18 138,-12.0938 128.508,-9.50977 117.532,-10.248"/>
<text text-anchor="middle" x="141.5" y="-14.3" font-family="Times New Roman,serif" font-size="14.00">1</text>
</g>
</g>
</svg>
